<?xml version="1.0" encoding="UTF-8" standalone="no"?>
<svg
   class="group will-change-contents md:mr-8 lg:mr-10 xl:mr-12 2xl:mr-16"
   fill="none"
   height="40"
   viewBox="0 0 111 32"
   width="139"
    version="1.1"
   id="svg7"
   xmlns="http://www.w3.org/2000/svg"
   xmlns:svg="http://www.w3.org/2000/svg">
  <defs
     id="defs7" />
  <title     id="title1" />
  <g
     id="g7">
    <path       d="m 0.95459,15.9435 c 0,-3.8239 6.85178,-5.3296 11.00311,-7.56766 6.2058,-3.34591 11.5843,-8.782319 14.1482,-6.28554 3.0678,2.98602 -4.0894,9.9745 -4.0894,13.8251 0,3.8506 7.1572,10.8391 4.0894,13.8251 C 23.542,32.2373 18.1635,26.8009 11.9577,23.4549 7.80637,21.2168 0.95459,19.7112 0.95459,15.8873 Z"
       fill="#e85a51"
       id="path1" />
    <path       d="M 6.36677,3.46119 18.8474,15.9296 6.36677,28.3981 Z M 4.9314,0 V 31.8621 L 20.8781,15.931 Z"
       fill="#142742"
       class="transition-[fill] duration-[500ms] group-data-[mobile-nav]:fill-[#2F3652]"
       id="path2" />
    <path       d="m 41.9597,19.8755 -2.7539,-3.5089 -0.7191,0.6874 v 2.8215 H 37.0499 V 12 h 1.4368 v 3.4289 L 41.9189,12 h 1.7056 l -3.3928,3.4485 3.4828,4.4256 h -1.7548 z"
       fill="#2f3652"
       class="transition-[fill] duration-[500ms]"
       id="path3" />
    <path       d="m 57.6151,19.9754 c -1.8857,0 -3.2732,-0.7184 -3.2732,-2.4926 0,-0.1589 0,-5.4828 0,-5.4828 h 1.4368 c 0,0 0,5.203 0,5.3535 0,0.8772 0.6586,1.3861 1.866,1.3861 1.047,0 1.8054,-0.4991 1.8054,-1.3763 0,-0.149 0,-5.3633 0,-5.3633 h 1.4368 c 0,0 0,5.4223 0,5.5629 0,1.6153 -1.3565,2.4125 -3.2718,2.4125 z"
       fill="#2f3652"
       class="transition-[fill] duration-[500ms]"
       id="path4" />
    <path       d="m 77.3599,19.8755 -3.4224,-5.7611 v 5.7611 H 72.5599 V 12 h 1.6957 l 3.3027,5.5925 V 12 h 1.3777 v 7.8755 z"
       fill="#2f3652"
       class="transition-[fill] duration-[500ms]"
       id="path5" />
    <path       d="M 91.3478,19.8755 H 89.8716 L 92.9056,12 h 1.8054 l 2.8834,7.8755 h -1.4958 l -0.698,-1.9133 h -3.3225 z m 2.6343,-5.882 -0.1998,-0.6678 -0.1999,0.6776 -1.0484,2.7217 h 2.4247 z"
       fill="#2f3652"
       class="transition-[fill] duration-[500ms]"
       id="path6" />
    <path       d="M 108.579,19.8755 V 12 h 1.467 v 7.8755 z"
       fill="#2f3652"
       class="transition-[fill] duration-[500ms]"
       id="path7" />
  </g>
</svg>
